<svg xmlns="http://www.w3.org/2000/svg" viewBox="0 0 512 512">
    <style>
        .s1 {
        fill: rgb(120,120,120);
        }
    </style>
    <path class="s1"
          d="M512 257l-76.5-47.7 42.7-80.4-90.1-3.1-3.2-91-79.6 42.4L257 0l-47.8 76.5-80.4-42.7-3.1 90.1-91 3.2 42.4 79.6L0 255l76.5 47.8L33.8 383l90.1 3.2 3.2 90.9 79.6-42.3L255 512l47.8-76.5 80.3 42.7 3.1-90.1 91-3.2-42.4-79.6L512 257zM357.2 359.2l-2.4 70.1L292 396 255 455.4l-37.7-60.2-61.9 33-2.5-71-70.1-2.4 33.3-62.7L56.6 255l60.2-37.7-33-61.9 71-2.5 2.4-70.1 62.7 33.3L257 56.6l37.6 60.2 62-33 2.4 71 70.1 2.4L396 220l59.5 37.2-60.2 37.6 33 62-71 2.4z"/>
    <path class="s1"
          d="M398.8 257l-42.5-26.5 23.9-45-50.1-1.7-1.8-51-44.3 23.6-27-43.2-26.5 42.5-45-23.9-1.7 50.1-51 1.8 23.6 44.3-43.2 27 42.5 26.5-23.9 45 50.1 1.7 1.8 51 44.3-23.6 27 43.2 26.5-42.5 45 23.9 1.7-50.1 51-1.8-23.6-44.3 43.2-27zm-68.7 43l-30.9 1-1 30.2-27.3-14.5-16 25.5-16.3-26.2L212 330l-1-30.9-30.2-1 14.5-27.3-25.5-16 26.2-16.3L182 212l30.9-1 1-30.2 27.3 14.5 16-25.5 16.3 26.2L300 182l1 30.9 30.2 1-14.5 27.3 25.5 16-26.2 16.3L330 300zM427.2 448.4l21.2-21.3 21.2 21.3-21.2 21.2zM469.6 490.8l21.2-21.2 21.2 21.2-21.2 21.2zM0 21.2L21.2 0l21.2 21.2-21.2 21.2zM42.4 63.6l21.2-21.2 21.2 21.2L63.6 85zM469.6 21.2L490.8 0 512 21.2l-21.2 21.2zM42.4 448.4l21.2-21.2 21.2 21.2-21.2 21.2z"/>
</svg>
