<svg xmlns="http://www.w3.org/2000/svg" viewBox="0 0 22.78 22.78">
    <g fill="rgb(120,120,120)">
        <path d="M17.93 15.43l.9-5.1-4.42 2.3-1.97-4-1.97 3.99-4.42-2.35.86 5.17-4.81.7 2.58 2.52h1l-2.09-2.04 4.12-.6-.74-4.48 3.8 2.03 1.67-3.38 1.66 3.38 3.8-1.98-.78 4.43 4.16.6-2.08 2.04h.99l2.59-2.52z"/>
        <path d="M16.32 16.55l.63-3.57-3.11 1.61-1.41-2.86-1.41 2.85-3.1-1.64.6 3.6-3.4.5 1.66 1.62h1.99l-.67-.65 2.02-.3-.37-2.23 1.88 1 .8-1.61.8 1.6 1.87-.96-.4 2.2 2.05.3-.66.65h1.99l1.66-1.62z"/>
        <path d="M12.44 17.9c-.5 0-.91.42-.91.92h1.82c0-.5-.4-.91-.91-.91zM17.91 3.96l-3.02 6.56.5.2zM5.7 14.4L0 9.96l5.35 4.85zM21.63 11.87l-2.56 2.21.38.38zM10.3 10.5L8.87 7.43l.93 3.26z"/>
    </g>
</svg>
