<svg xmlns="http://www.w3.org/2000/svg" viewBox="0 0 612 612">
    <path fill="rgb(120,120,120)"
          d="M597.8 317.4l-123.6 9V218.8a13.2 13.2 0 0 0-20.4-11L377 258.4l-36.7-190a13.2 13.2 0 0 0-25-2.8L239 237l-119.8-83.6c-9.8-6.9-23 2-20.4 13.7l37.2 165L35.6 354a13.2 13.2 0 0 0-6 22.9l71.6 62.3L37 489.7h120.3l34.2-27-48.7-42.4 67.3-14.5L186.4 300 265 355 315 243l23.8 123.4 51.8-34.2v70.5l85-6.2-71.5 70.4 36.2 22.8h127.3l-68-42.8L608 340c8.8-8.6 2-23.4-10.2-22.5zM16.5 554.3H590c9.1 0 16.5-7.4 16.5-16.5v-6.6c0-9.1-7.4-16.5-16.5-16.5H16.5c-9.1 0-16.5 7.4-16.5 16.5v6.6c0 9.1 7.4 16.5 16.5 16.5z"/>
</svg>
