<svg xmlns="http://www.w3.org/2000/svg" viewBox="0 0 17.09 17.09">
    <g fill="rgb(120,120,120)">
        <path d="M14.32 8.51l2.32-2.25c.09-.09.12-.22.08-.33s-.14-.2-.26-.22l-3.41-.5.53-3.44a.32.32 0 0 0-.13-.31.33.33 0 0 0-.34-.02l-2.87 1.57L8.84.17c-.12-.23-.48-.23-.59 0L6.78 3.15 3.68 1.6a.32.32 0 0 0-.46.34l.62 3.31-3.21.47a.32.32 0 0 0-.18.55l2.36 2.3-2.36 2.38a.32.32 0 0 0 .18.55l3.3.43-.57 3.3c-.02.12.03.25.13.32s.23.08.34.02l3.01-1.58 1.5 2.93c.06.11.17.18.3.18.12 0 .23-.07.28-.19L10.3 14l2.96 1.56a.32.32 0 0 0 .47-.34l-.6-3.44 3.33-.53a.32.32 0 0 0 .17-.55l-2.3-2.19zm-2.12 2.36a.28.28 0 0 0-.18.12.28.28 0 0 0-.05.2l.47 2.75-2.35-1.24a.29.29 0 0 0-.23-.02.28.28 0 0 0-.16.15L8.6 15.12 7.42 12.8a.28.28 0 0 0-.38-.12l-2.4 1.26.46-2.63a.28.28 0 0 0-.05-.22.28.28 0 0 0-.2-.11l-2.6-.34 1.87-1.89a.29.29 0 0 0 .08-.2.29.29 0 0 0-.09-.2L2.24 6.53l2.55-.37a.28.28 0 0 0 .19-.12.27.27 0 0 0 .05-.21l-.5-2.63L7 4.45a.28.28 0 0 0 .39-.13l1.16-2.37L9.65 4.2c.04.07.1.12.17.14.07.03.15.02.22-.02l2.28-1.24-.43 2.73c0 .08.01.15.06.21.04.07.1.1.19.12l2.7.4-1.82 1.78a.29.29 0 0 0-.1.2c0 .08.04.15.1.2l1.82 1.73-2.64.42z"/>
        <path d="M12.46 7.3l-1.69-.25a.18.18 0 0 1-.14-.2l.26-1.7-1.41.77a.18.18 0 0 1-.24-.08l-.7-1.39-.72 1.47a.18.18 0 0 1-.1.1.18.18 0 0 1-.14-.02l-1.53-.77.3 1.63c.02.05 0 .1-.02.14a.18.18 0 0 1-.12.07l-1.58.23 1.16 1.13a.17.17 0 0 1 0 .25L4.63 9.85l1.62.21a.18.18 0 0 1 .16.2l-.29 1.64 1.49-.78a.17.17 0 0 1 .08-.02h.05c.05.02.09.05.1.1l.75 1.44.67-1.43a.17.17 0 0 1 .1-.09c.05-.01.1-.01.14.01l1.46.77-.29-1.7c0-.04 0-.1.04-.13a.17.17 0 0 1 .1-.07l1.65-.27-1.14-1.07a.18.18 0 0 1 0-.25l1.14-1.11z"/>
    </g>
</svg>
