<svg viewBox="0 -1 496 496" xmlns="http://www.w3.org/2000/svg">
    <style>
        .ms1 {
        fill: rgb(120,120,120);
        }
    </style>
    <path
            class="ms1"
            d="M361 415a157 157 0 0 0-226 0c-38 3-71 28-84 63H32v16h432v-16h-19c-13-35-46-60-84-63zm67 63H276c14-29 43-48 76-48 32 0 62 19 76 48zm-90-63c-35 5-66 29-79 63h-22c-13-34-44-58-79-63a141 141 0 0 1 180 0zm-194 15c32 0 62 19 76 48H68c14-29 44-48 76-48zm0 0M48 433a55 55 0 0 1-16-35c0-34 11-45 23-58 14-15 30-32 33-80 17 11 48 35 48 66h16c0-52-66-86-68-87l-12-6v13c0 52-15 68-29 83-13 14-27 29-27 69 0 15 6 30 19 45zm0 0M263 102c0-30 26-54 41-65 3 27 15 40 25 51 13 13 23 23 7 67l15 6c18-50 7-66-10-84-11-12-22-23-22-55V8l-12 7c-2 2-60 35-60 87zm0 0"
    />
    <path
            class="ms1"
            d="M276 343l8 14c1 0 36-18 36-55 0-35-25-60-26-62l-14-13v19c0 11-14 21-25 28-4-43-33-65-34-66l-13-10v16c0 24-6 35-13 45-5 9-11 18-11 35 0 35 25 61 26 62l12-12c-1 0-22-22-22-50 0-12 4-18 9-27 5-8 11-18 14-34 8 10 17 28 17 53v12l11-4c4-2 29-13 40-31 6 9 13 23 13 39 0 27-27 41-28 41zm0 0M208 398h16v16h-16zm0 0M272 398h16v16h-16zm0 0M112 446h16v16h-16zm0 0M160 446h16v16h-16zm0 0M368 446h16v16h-16zm0 0M240 446h16v16h-16zm0 0M320 446h16v16h-16zm0 0M104 228c-13-37-5-47 5-61 7-10 15-21 18-42 11 9 25 24 25 41h16c0-36-42-62-44-63l-12-7v14c0 26-8 37-16 48-11 15-22 30-8 75zm0 0M328 222h16c0-22 15-39 25-49 4 22 14 32 22 40 11 10 17 16 2 46l14 7c19-38 10-51-4-65-10-8-19-17-19-43v-14l-12 7c-2 1-44 27-44 71zm0 0M190 72c8-9 15-18 17-43 11 9 25 24 25 41h16c0-36-42-62-44-63l-12-7v14c0 33-7 39-14 46-10 11-18 22-18 58h16c0-33 7-39 14-46zm0 0M368 350h16c0-43 32-62 48-69 2 31 12 49 20 63 7 13 12 23 12 38 0 22-18 34-32 40l6 14c27-11 42-30 42-54 0-20-7-32-14-46-9-16-18-32-18-66v-10l-10 2c-1 1-70 19-70 88zm0 0M288 190h16c0-13-6-23-12-31-6-10-12-18-12-33h-16c0 20 8 32 15 42 5 7 9 13 9 22zm0 0M64 382h16c0-9 7-18 14-27 9-10 18-22 18-37H96c0 9-7 18-14 27-9 11-18 22-18 37zm0 0"
    />
    <path
            class="ms1"
            d="M136 182h-16c0 19 12 31 22 42 10 9 18 17 18 30h16c0-19-12-31-22-42-10-9-18-17-18-30zm0 0M424 334h-16c0 10 4 19 9 28 4 7 7 14 7 20h16c0-10-4-19-9-27-4-8-7-15-7-21zm0 0M0 478h16v16H0zm0 0M480 478h16v16h-16zm0 0M240 414h16v16h-16zm0 0"
    />
</svg>
