<svg xmlns="http://www.w3.org/2000/svg" viewBox="0 0 17.01 17.01">
    <g fill="rgb(120,120,120)">
        <path d="M16.91.1c-.7-.7-5.25 2.82-5.43 3L9.8 4.78l-1.1-.5a.29.29 0 0 0-.33.07L7.01 5.7c-.07.07-.1.16-.08.25s.08.18.16.21l.91.41-3.25 3.26-1.99-.9a.29.29 0 0 0-.32.07L.1 11.36c-.06.06-.1.16-.07.25s.07.17.16.21l2.24 1c.1.05.23.03.32-.06l.1-.1c.11-.11.3-.11.41 0l1.08 1.08c.11.11.11.3 0 .4l-.1.1a.29.29 0 0 0-.05.32l1.02 2.29a.28.28 0 0 0 .21.16c.1.02.2-.01.26-.08l2.35-2.35a.3.3 0 0 0 .06-.32l-.9-2.01 3.25-3.26.42.94a.3.3 0 0 0 .21.17c.1.01.19-.02.26-.08l1.37-1.38c.09-.08.11-.2.06-.32l-.5-1.14 1.65-1.66C14.08 5.34 17.61.8 16.91.1zM11.7 6.91a.29.29 0 0 0-.07.32l.52 1.14-.94.94-.43-.94a.3.3 0 0 0-.2-.17.28.28 0 0 0-.26.09L6.62 12c-1.57-.24-1.6-1.62-1.6-1.62L8.7 6.7c.07-.06.1-.16.08-.25a.29.29 0 0 0-.17-.2l-.9-.42.94-.94 1.1.5c.11.05.24.02.32-.06l1.37-1.37a2.36 2.36 0 0 0 .59 1.04c.28.29.6.42 1.07.52l-1.4 1.41z"/>
        <path d="M1.13 15.81c1.24-.34.36-1.33.56-1.73.26-.52.54-.5 1.3-.62-.36-.16-.76-.2-1.18-.14-.4.07-.83.3-1.12.66-.3.35-.44.78-.52 1.2a4.9 4.9 0 0 0-.03 1.22l.05.42.4.02c.44.02.8-.02 1.2-.14.38-.13.76-.32 1.05-.61.6-.58.79-1.43.65-2.13-.27.68-.41 1.88-2.36 1.85z"/>
    </g>
</svg>
