<svg height="511pt" viewBox="-57 0 511 511.99941" width="511pt" xmlns="http://www.w3.org/2000/svg"><path d="m38.703125 190.335938c-10.566406-7.84375-23.164063-20.472657-23.164063-36.09375 0-18.378907 17.171876-36.355469 48.347657-50.621094 2.746093-1.253906 4.476562-4.035156 4.390625-7.058594-.007813-.261719-.019532-.527344-.019532-.800781 0-23.574219 18.722657-42.75 41.738282-42.75 5.328125 0 10.542968 1.035156 15.414062 3.019531-6.265625 7.207031-10.007812 16.070312-10.820312 25.515625-4.570313 1.320313-8.914063 3.671875-12.660156 7.09375-13.035157 11.902344-13.957032 32.195313-2.050782 45.230469 1.484375 1.625 3.515625 2.449218 5.554688 2.449218 1.8125 0 3.628906-.648437 5.070312-1.964843 3.066406-2.800781 3.28125-7.558594.480469-10.625-6.3125-6.914063-5.824219-17.671875 1.089844-23.984375 6.914062-6.3125 17.671875-5.824219 23.984375 1.089844 2.796875 3.066406 7.554687 3.28125 10.625.484374 3.066406-2.804687 3.28125-7.558593.480468-10.625-4.773437-5.230468-10.894531-8.503906-17.359374-9.789062.917968-5.996094 3.628906-11.566406 7.902343-16.050781 5.507813-5.773438 12.933594-9.0625 20.914063-9.253907.242187-.003906.484375-.007812.726562-.007812 16.148438 0 29.476563 12.9375 29.863282 29.167969.097656 4.089843 3.445312 7.339843 7.515624 7.339843h.183594c4.152344-.097656 7.4375-3.546874 7.339844-7.699218-.59375-24.765625-21.179688-44.40625-45.988281-43.835938-2.277344.054688-4.527344.277344-6.730469.660156 9.5625-14.972656 25.644531-24.984374 43.59375-26.203124 4.144531-.28125 7.277344-3.867188 6.992188-8.011719-.28125-4.144531-3.855469-7.273438-8.011719-6.996094-26.582031 1.808594-49.925781 18.742187-60.605469 43.125-7.339844-3.398437-15.324219-5.167969-23.503906-5.167969-30.058594 0-54.730469 23.894532-56.65625 53.996094-34.121094 16.636719-52.839844 38.636719-52.839844 62.273438 0 17.316406 10.109375 33.972656 29.238281 48.171874 1.347657 1 2.917969 1.480469 4.476563 1.480469 2.300781 0 4.570312-1.050781 6.046875-3.039062 2.472656-3.335938 1.777343-8.046875-1.558594-10.519531zm0 0"/><path d="m397.375 154.242188c0-23.636719-18.71875-45.636719-52.835938-62.273438-1.925781-30.101562-26.601562-53.996094-56.65625-53.996094-8.1875 0-16.171874 1.769532-23.515624 5.171875-6.382813-14.539062-17.441407-26.816406-31.28125-34.480469-3.636719-2.011718-8.210938-.695312-10.222657 2.9375-2.011719 3.636719-.695312 8.210938 2.9375 10.222657 13.121094 7.261719 23.082031 19.777343 27.339844 34.347656.675781 2.3125 2.421875 4.164063 4.691406 4.972656 2.273438.8125 4.796875.480469 6.785157-.886719 6.898437-4.742187 14.945312-7.246093 23.265624-7.246093 23.011719 0 41.734376 19.175781 41.734376 42.75l-.003907.300781c-.007812.238281-.015625.480469-.015625.71875 0 2.941406 1.71875 5.613281 4.394532 6.839844 31.175781 14.261718 48.34375 32.242187 48.34375 50.621094 0 15.363281-12.5625 30.992187-35.375 44.003906-20.675782 11.792968-48.953126 20.964844-80.773438 26.324218 1.246094-1.988281 2.496094-3.933593 3.746094-5.820312 38.851562-6.328125 58.550781-16.699219 58.550781-30.84375 0-11.988281-13.636719-21-41.691406-27.554688-23.679688-5.527343-55.046875-8.570312-88.332031-8.570312-33.28125 0-64.648438 3.042969-88.328126 8.570312-28.050781 6.554688-41.6875 15.5625-41.6875 27.554688 0 14.28125 20.054688 24.710938 59.613282 31.015625 1.210937 1.832031 2.421875 3.71875 3.632812 5.648437-24.527344-4.121093-46.921875-10.480468-65.453125-18.652343-3.800781-1.675781-8.242187.046875-9.917969 3.847656-1.675781 3.800781.046876 8.238281 3.847657 9.914063 22.714843 10.019531 50.734375 17.441406 81.230469 21.566406 6.714843 12.484375 13.058593 26.519531 18.371093 42.039062-15.882812 2.195313-29.703125 5.699219-40.347656 10.273438-10.585937 4.546875-23.207031 12.566406-23.207031 24.941406 0 8.222656 5.722656 19.847656 32.976562 28.554688 12.65625 4.039062 28.082032 6.84375 44.847656 8.226562 1.410157 22.640625.039063 45.429688-4.144531 68.097656-4.082031 3.597656-7.554687 7.929688-10.140625 12.851563-3.800781-1.363281-7.828125-2.070313-11.933594-2.070313-18.347656 0-33.519531 14.082032-35.59375 32.171875-16.40625 8.34375-26.628906 18.960938-29.617187 30.625h-16.566406c-4.152344 0-7.519531 3.367188-7.519531 7.519531 0 4.15625 3.367187 7.523438 7.519531 7.523438h269.796875c4.152344 0 7.519531-3.367188 7.519531-7.523438 0-4.152343-3.367187-7.519531-7.519531-7.519531h-20.574219c-2.988281-11.664062-13.210937-22.28125-29.617187-30.625-2.074219-18.085937-17.246094-32.171875-35.589844-32.171875-4.109375 0-8.136719.707032-11.9375 2.070313-2.585938-4.925781-6.058594-9.257813-10.140625-12.851563-4.1875-22.695312-5.5625-45.515625-4.140625-68.179687 16.394531-1.410157 31.480468-4.179688 43.890625-8.144531 27.257812-8.703126 32.976562-20.332032 32.976562-28.554688 0-12.285156-12.449219-20.273438-22.894531-24.804688-10.472656-4.550781-24.089844-8.054687-39.75-10.28125 5.320312-15.566406 11.675781-29.636718 18.410156-42.15625 84.449219-11.390624 140.902344-46.128906 140.902344-87.015624zm-313.859375 33.664062c.808594-1.953125 8.15625-8.121094 32.695313-13.503906 22.277343-4.890625 51.488281-7.578125 82.25-7.578125 30.765624 0 59.976562 2.6875 82.253906 7.578125 24.535156 5.382812 31.886718 11.550781 32.691406 13.503906-.773438 1.820312-7.789062 7.78125-30.671875 13.046875 1.121094-1.4375 2.230469-2.839844 3.316406-4.183594 2.617188-3.226562 2.121094-7.960937-1.105469-10.578125-3.226562-2.613281-7.960937-2.117187-10.578124 1.105469-9.078126 11.199219-19.308594 25.542969-28.964844 42.863281-.203125.308594-.378906.628906-.535156.964844-8.941407 16.175781-17.355469 34.925781-23.859376 56.128906-.074218.207032-.136718.421875-.195312.636719-2.925781 9.621094-5.464844 19.730469-7.476562 30.339844-1.433594 7.5625-2.542969 15.15625-3.371094 22.769531-3.785156.148438-7.621094.230469-11.503906.230469-3.554688 0-7.070313-.070313-10.546876-.195313-.828124-7.625-1.941406-15.230468-3.375-22.804687-2.015624-10.648438-4.570312-20.792969-7.507812-30.441407-.054688-.210937-.117188-.417968-.1875-.621093-6.515625-21.203125-14.933594-39.949219-23.882812-56.128907-.136719-.28125-.285157-.554687-.453126-.816406-4.441406-7.96875-9-15.304687-13.515624-21.996094-.160157-.277343-.339844-.546874-.539063-.800781-5.132813-7.554687-10.199219-14.269531-14.945313-20.128906-2.617187-3.226563-7.351562-3.722656-10.582031-1.105469-3.222656 2.617188-3.71875 7.351563-1.105469 10.578125 1.15625 1.425781 2.332032 2.910157 3.523438 4.441407-23.777344-5.320313-31.039062-11.441407-31.828125-13.304688zm50.253906 144.820312c-16.519531-5.273437-22.511719-11.398437-22.511719-14.226562 0-5.078125 15.667969-15.921875 53.046876-20.644531 2.089843 7.429687 3.933593 15.148437 5.453124 23.175781 1.199219 6.324219 2.171876 12.671875 2.925782 19.039062-14.601563-1.347656-27.945313-3.839843-38.914063-7.34375zm97.949219 120.964844c2.273438.808594 4.796875.476563 6.785156-.890625 3.417969-2.351562 7.414063-3.597656 11.550782-3.597656 11.46875 0 20.796874 9.585937 20.796874 21.347656l-.015624.457031c-.058594 2.996094 1.664062 5.746094 4.390624 6.992188 12.144532 5.550781 20.46875 12.199219 24.007813 18.957031h-200.59375c3.539063-6.757812 11.863281-13.40625 24.003906-18.957031 2.726563-1.25 4.453125-3.996094 4.390625-6.992188l-.011718-.433593c0-11.785157 9.328124-21.371094 20.796874-21.371094 4.136719 0 8.128907 1.246094 11.550782 3.597656 1.984375 1.367188 4.507812 1.699219 6.785156.890625 2.273438-.808594 4.019531-2.660156 4.695312-4.976562 3.6875-12.613282 15.238282-21.421875 28.085938-21.421875s24.398438 8.808593 28.082031 21.421875c.679688 2.316406 2.425781 4.167968 4.699219 4.976562zm-20.492188-39.640625c-3.9375-1.167969-8.066406-1.800781-12.289062-1.800781-4.226562 0-8.351562.632812-12.289062 1.804688 2.757812-19.304688 3.589843-38.660157 2.507812-57.925782 3.078125.09375 6.179688.144532 9.304688.144532 3.449218 0 6.871093-.0625 10.257812-.175782-1.085938 19.273438-.253906 38.640625 2.507812 57.953125zm74.441407-95.550781c0 2.828125-5.996094 8.953125-22.515625 14.226562-10.726563 3.429688-23.722656 5.890626-37.953125 7.257813.75-6.335937 1.722656-12.65625 2.914062-18.953125 1.511719-7.984375 3.347657-15.664062 5.421875-23.058594 36.734375 4.796875 52.132813 15.527344 52.132813 20.527344zm0 0"/><path d="m220.703125 99.140625c3.757813 1.777344 8.238281.167969 10.015625-3.585937 2.027344-4.289063 5.601562-7.535157 10.070312-9.136719 4.46875-1.601563 9.289063-1.363281 13.578126.664062 4.292968 2.023438 7.535156 5.601563 9.136718 10.070313 1.601563 4.464844 1.367188 9.289062-.660156 13.578125-1.773438 3.757812-.167969 8.238281 3.585938 10.015625 1.039062.488281 2.132812.722656 3.207031.722656 2.820312 0 5.523437-1.59375 6.804687-4.3125 3.746094-7.921875 4.179688-16.828125 1.222656-25.078125-2.957031-8.25-8.945312-14.855469-16.871093-18.597656-7.921875-3.742188-16.828125-4.175781-25.078125-1.222657-8.25 2.957032-14.851563 8.945313-18.597656 16.871094-1.773438 3.753906-.167969 8.238282 3.585937 10.011719zm0 0"/><path d="m330.089844 147.878906c-4.066406.855469-6.667969 4.84375-5.8125 8.90625.746094 3.542969 3.871094 5.976563 7.351562 5.972656.511719 0 1.035156-.050781 1.554688-.160156 11.179687-2.351562 18.359375-13.359375 16.007812-24.539062-2.351562-11.179688-13.351562-18.359375-24.535156-16.007813-4.066406.855469-6.667969 4.84375-5.8125 8.90625.851562 4.066407 4.84375 6.667969 8.90625 5.8125 3.058594-.648437 6.078125 1.320313 6.722656 4.386719.644532 3.0625-1.320312 6.078125-4.382812 6.722656zm0 0"/><path d="m53.554688 149.457031c-2.511719-1.867187-3.03125-5.429687-1.160157-7.941406.902344-1.214844 2.230469-2.003906 3.730469-2.226563 1.496094-.214843 2.992188.160157 4.210938 1.0625 3.332031 2.480469 8.039062 1.792969 10.523437-1.539062 2.480469-3.332031 1.789063-8.042969-1.539063-10.523438-4.4375-3.304687-9.890624-4.683593-15.375-3.882812-5.472656.800781-10.308593 3.6875-13.613281 8.125-6.824219 9.164062-4.921875 22.167969 4.242188 28.988281 1.347656 1.007813 2.921875 1.488281 4.484375 1.488281 2.296875 0 4.5625-1.046874 6.039062-3.027343 2.476563-3.328125 1.789063-8.042969-1.542968-10.523438zm0 0"/><path d="m182.929688 251.140625c3.605468 11.804687 6.550781 23.945313 8.75 36.09375.660156 3.632813 3.824218 6.179687 7.390624 6.179687.449219 0 .898438-.039062 1.351563-.121093 4.085937-.742188 6.800781-4.65625 6.058594-8.742188-2.308594-12.722656-5.390625-25.441406-9.167969-37.800781-4.804688-15.726562-10.832031-31.238281-17.925781-46.097656-1.789063-3.746094-6.277344-5.332032-10.027344-3.546875-3.746094 1.789062-5.335937 6.277343-3.546875 10.023437 6.769531 14.191406 12.53125 29 17.117188 44.011719zm0 0"/><path d="m211.859375 248.601562c.703125.203126 1.40625.300782 2.101563.300782 3.261718 0 6.265624-2.136719 7.21875-5.421875 2.089843-7.183594 4.683593-14.289063 7.714843-21.121094 2.960938-6.679687 6.394531-13.226563 10.203125-19.460937 2.167969-3.542969 1.050782-8.171876-2.496094-10.339844-3.539062-2.164063-8.171874-1.046875-10.335937 2.496094-4.152344 6.792968-7.894531 13.925781-11.121094 21.207031-3.304687 7.449219-6.132812 15.191406-8.40625 23.019531-1.160156 3.988281 1.132813 8.160156 5.121094 9.320312zm0 0"/></svg>