<svg xmlns="http://www.w3.org/2000/svg" viewBox="0 0 382.69 382.69">
    <path
            fill="rgb(120,120,120)"
            d="M329.2 197.01c.12-2.4.2-4.8.2-7.14 0-75.89-61.74-137.62-137.62-137.62a137.1 137.1 0 0 0-106.94 51.04l-4.5 5.55 74.44 25.59 2.02-1.25a66.4 66.4 0 0 1 34.97-9.93 66.7 66.7 0 0 1 66.62 66.62 66 66 0 0 1-.4 7.14H211.9l85.4 133.42 85.39-133.42h-53.5zM81.05 160.69C36.35 160.69 0 197.03 0 241.73s36.36 81.05 81.05 81.05 81.04-36.36 81.04-81.05-36.36-81.04-81.04-81.04z"
    />
</svg>
