<svg viewBox="-9 0 511 511.99939" xmlns="http://www.w3.org/2000/svg">
    <path
            fill="rgb(120,120,120)"
            d="M19.125 246.67188c9.83984-64.89844 47.19531-122.71485 102.48438-158.62891 38.62109-25.08203 82.65624-37.64453 128.0625-37.08594l-16.81641-16.8125c-7.8086-7.8125-7.8086-20.47656 0-28.28516 7.8125-7.8125 20.47656-7.8125 28.28516 0l56.8789 56.875c10.52344 7.28907 11.28516 22.32813 2.66406 30.95313l-59.54296 59.53906c-7.8086 7.8125-20.47266 7.8125-28.28516 0-7.8086-7.8086-7.8086-20.47265 0-28.28515l33.04297-33.04297c-43.46094-4.17188-85.97266 5.96484-122.5 29.6914-45.71485 29.69532-76.59766 77.46875-84.72266 131.07813-1.65234 10.89844-11.83203 18.4375-22.77344 16.77344-10.92187-1.65625-18.42968-11.84766-16.77734-22.76953zm297.08203 212.3164c-50.48828 19.76563-107.29687 16.91016-155.8711-7.83594-38.80859-19.76953-68.83984-51.51562-86.95702-91.23437L118.48047 372c10.66797 2.85938 21.63281-3.47656 24.49219-14.14453s-3.47266-21.63672-14.14063-24.4961l-81.35547-21.79296c-11.74219-3.14453-24.17969 5.02734-25.39062 17.49218L1.1875 407.04297c-2.85938 10.67187 3.47266 21.64062 14.14062 24.5 10.73438 2.875 21.65235-3.54297 24.4922-14.14063l6.17577-23.03906c22.21875 39.63281 55.12891 71.51563 96.1836 92.42969 57.5625 29.32812 126.28906 33.83984 188.60937 9.4414 10.28125-4.02734 15.35547-15.6289 11.33203-25.91406-4.02734-10.28515-15.6289-15.35547-25.91406-11.33203zm176.60547-51.94531c-2.85547-10.66797-13.82813-17.0039-24.49219-14.14453l-23.03515 6.17187c23.1914-39.04687 34.33593-83.46875 31.92187-129.46484-3.45703-65.83984-34.84765-127.09375-86.125-168.0625-8.63281-6.89453-21.21484-5.48828-28.10937 3.14453-6.89453 8.6289-5.48828 21.21484 3.14062 28.10547 42.35938 33.84375 68.29297 84.47266 71.14844 138.91016 2.28516 43.48437-10.1836 85.35546-35.51172 120.90234L389.66016 347.5c-2.85938-10.66797-13.82422-17-24.4961-14.14062-10.66797 2.85937-17 13.82812-14.14062 24.49609l21.80078 81.33594c3.21875 12.01562 16.52734 18.58984 28.04687 13.1875l77.79688-20.84375c10.67187-2.85547 17.0039-13.82032 14.14453-24.4922zm0 0"
    />
</svg>
