<svg xmlns="http://www.w3.org/2000/svg" width="47" height="47">
    <style>
        .th1 {
        fill: rgb(120,120,120);
        }
    </style>
    <path class="th1"
          d="M34.66 22.38l-.26.27a19.37 19.37 0 0 1-3.49 2.76c1.61 2.37 2.81 4.8 3.49 7.16 1.02 3.56.68 6.52-.92 8.12-1 1-2.46 1.5-4.34 1.5-4.78 0-10.93-3.17-16.04-8.29-8.01-8-10.01-17.17-6.8-20.39 1-1 2.46-1.5 4.34-1.5 3.26 0 7.17 1.49 10.95 4.06a19.52 19.52 0 0 1 2.76-3.47l.27-.27C19.95 9.06 15 7.21 10.64 7.21c-3.16 0-5.83 1-7.74 2.9C-2.8 15.84.17 27.78 9.7 37.3c6.07 6.07 13.34 9.7 19.44 9.7 3.16 0 5.83-1 7.74-2.9 2.91-2.92 3.67-7.48 2.14-12.85a30.41 30.41 0 0 0-4.36-8.88z"/>
    <path class="th1"
          d="M14.7 15.65a4.5 4.5 0 0 0-3.3 1.26c-.9.9-2.13 3-.37 7 1 2.28 2.8 4.77 5.04 7.02 3.66 3.66 7.77 5.93 10.72 5.93a4.5 4.5 0 0 0 3.3-1.26c.89-.9 2.13-3 .36-7.01-.32-.73-.73-1.48-1.2-2.24-3.6 1.78-6.62 1.94-6.8 1.95a3.62 3.62 0 0 1-3.76-3.75c.01-.19.17-3.2 1.95-6.79-2.16-1.34-4.25-2.11-5.95-2.11z"/>
    <path class="th1"
          d="M46.96 7.7c-.1-.4-.4-.72-.8-.85l-4.58-1.43L40.14.84a1.2 1.2 0 0 0-2-.49l-4.16 4.17c-.28.28-.4.69-.33 1.08l.51 2.62c-2.43 1.17-5.5 3.46-8.12 6.07a16.87 16.87 0 0 0-4.95 10.36 1.2 1.2 0 0 0 1.26 1.25c.23-.01 5.7-.3 10.35-4.95 2.6-2.62 4.9-5.7 6.08-8.12l2.61.51c.4.08.8-.04 1.08-.33l4.17-4.17c.3-.3.42-.72.32-1.13z"/>
</svg>
